<svg xmlns="http://www.w3.org/2000/svg" width="2094" height="2094" viewBox="0 0 2094 2094" version="1.1"><path d="M 1206 177.362 C 1206 178.956, 1189.576 303.751, 1184.465 341 C 1175.358 407.354, 1166.724 442.709, 1152.587 471.531 C 1139.324 498.574, 1122.858 515.762, 1098.139 528.369 C 1078.987 538.136, 1054.770 544.674, 1027.500 547.438 C 1011.285 549.081, 975.172 550.993, 960.250 550.997 L 951 551 951 722 L 951 893 1031.363 893 L 1111.726 893 1112.323 1187.750 C 1112.917 1481.171, 1113.073 1493.861, 1116.519 1529.500 C 1120.248 1568.079, 1128.191 1612.215, 1135.923 1637.323 C 1151.171 1686.842, 1156.279 1700.445, 1171.011 1730.776 C 1203.074 1796.784, 1248.306 1850.769, 1307.500 1893.676 C 1384.924 1949.798, 1487.001 1983.801, 1607 1993.443 C 1641.560 1996.220, 1685.866 1996.964, 1817.750 1996.982 L 1947 1997 1947 1815.067 L 1947 1633.133 1843.750 1632.706 C 1733.638 1632.251, 1731.579 1632.167, 1703.500 1626.980 C 1623.364 1612.175, 1572.694 1571.092, 1548.740 1501.500 C 1540.910 1478.751, 1536.076 1454.744, 1532.936 1423 C 1532.133 1414.887, 1531.650 1335.149, 1531.297 1152.250 L 1530.796 893 1729.398 893 L 1928 893 1928 722 L 1928 551 1729.500 551 L 1531 551 1531 363.500 L 1531 176 1368.500 176 C 1232.028 176, 1206 176.218, 1206 177.362" stroke="none" fill="#de6d6d" fill-rule="evenodd"/><path d="M 465.284 177.721 C 462.560 178.060, 461.987 178.610, 461.542 181.311 C 461.253 183.065, 456.718 217.125, 451.463 257 C 438.366 356.393, 434.586 382.431, 430.497 401.444 C 421.925 441.302, 411.497 470.084, 398.953 488.500 C 382.149 513.173, 362.715 527.301, 331.500 537.538 C 298.150 548.476, 280.563 549.910, 170.250 550.691 L 88 551.274 88 721.637 L 88 892 228.500 892 L 369 892 369.032 1178.750 C 369.049 1336.463, 369.479 1476.300, 369.986 1489.500 C 372.176 1546.431, 381.296 1603.331, 396.001 1651.824 C 439.679 1795.852, 531.320 1896.039, 669 1950.280 C 730.246 1974.409, 792.313 1987.540, 876 1994.074 C 884.637 1994.748, 991.270 1995.433, 1172 1995.975 C 1509.147 1996.986, 1687.367 1996.977, 1653.469 1995.951 C 1557.092 1993.034, 1475.795 1976.923, 1401.426 1946.003 C 1309.631 1907.837, 1236.004 1844.382, 1187.084 1761.276 C 1178.109 1746.027, 1163.995 1717.076, 1156.238 1698 C 1151.099 1685.362, 1147.658 1675.095, 1135.627 1636.500 C 1134.255 1632.100, 1133.103 1629.238, 1133.066 1630.140 C 1133.008 1631.580, 1130.467 1631.872, 1112.250 1632.535 C 1087.827 1633.423, 1014.870 1632.425, 995.801 1630.942 C 978.040 1629.560, 956.854 1626.489, 944 1623.433 C 921.803 1618.154, 895.822 1607.681, 878.500 1597.028 C 829.668 1566.997, 800.548 1514.733, 790.451 1439 C 787.780 1418.968, 787.159 1359.666, 787.076 1116.750 L 787 893 869 893 L 951 893 951 722 L 951 551 868.500 551 L 786 551 786 364 L 786 177 627.250 177.160 C 539.938 177.248, 467.053 177.500, 465.284 177.721 M 961.250 550.739 C 964.413 550.937, 969.587 550.937, 972.750 550.739 C 975.913 550.541, 973.325 550.378, 967 550.378 C 960.675 550.378, 958.087 550.541, 961.250 550.739" stroke="none" fill="#77a6b4" fill-rule="evenodd"/></svg>