<?xml version="1.0" encoding="UTF-8" standalone="no"?>
<!DOCTYPE svg PUBLIC "-//W3C//DTD SVG 1.1//EN" "http://www.w3.org/Graphics/SVG/1.1/DTD/svg11.dtd">
<svg height="100%" stroke-miterlimit="10" style="fill-rule:nonzero;clip-rule:evenodd;stroke-linecap:round;stroke-linejoin:round;" version="1.1" viewBox="88.9774 176 1858.02 1821" width="100%" xml:space="preserve" xmlns="http://www.w3.org/2000/svg" xmlns:vectornator="http://vectornator.io" xmlns:xlink="http://www.w3.org/1999/xlink">
<defs/>
<clipPath id="ArtboardFrame">
<rect height="1821" width="1858.02" x="88.9774" y="176"/>
</clipPath>
<g clip-path="url(#ArtboardFrame)" id="Layer" vectornator:layerName="Layer">
<path d="M1206 177.362C1206 178.956 1189.58 303.751 1184.46 341C1175.36 407.354 1166.72 442.709 1152.59 471.531C1139.32 498.574 1122.86 515.762 1098.14 528.369C1078.99 538.136 1054.77 544.674 1027.5 547.438C1011.28 549.081 975.172 550.993 960.25 550.997L951 551L951 722L951 893L1031.36 893L1111.73 893L1112.32 1187.75C1112.92 1481.17 1113.07 1493.86 1116.52 1529.5C1120.25 1568.08 1128.19 1612.21 1135.92 1637.32C1151.17 1686.84 1156.28 1700.44 1171.01 1730.78C1203.07 1796.78 1248.31 1850.77 1307.5 1893.68C1384.92 1949.8 1487 1983.8 1607 1993.44C1641.56 1996.22 1685.87 1996.96 1817.75 1996.98L1947 1997L1947 1815.07L1947 1633.13L1843.75 1632.71C1733.64 1632.25 1731.58 1632.17 1703.5 1626.98C1623.36 1612.17 1572.69 1571.09 1548.74 1501.5C1540.91 1478.75 1536.08 1454.74 1532.94 1423C1532.13 1414.89 1531.65 1335.15 1531.3 1152.25L1530.8 893L1729.4 893L1928 893L1928 722L1928 551L1729.5 551L1531 551L1531 363.5L1531 176L1368.5 176C1232.03 176 1206 176.218 1206 177.362Z" fill="#de6d6d" fill-rule="evenodd" opacity="1" stroke="none" vectornator:layerName="path"/>
<path d="M786.977 177.283L628.227 177.439C540.915 177.527 468.028 177.781 466.259 178.002C463.535 178.341 462.954 178.895 462.509 181.596C462.22 183.35 457.701 217.408 452.446 257.283C439.349 356.676 435.566 382.708 431.477 401.721C422.905 441.579 412.459 470.367 399.915 488.783C383.111 513.456 363.692 527.577 332.477 537.814C299.127 548.752 88.9774 551.564 88.9774 551.564L88.9774 721.908L88.9774 892.283L229.477 892.283L369.977 892.283L370.009 1179.03C370.026 1336.75 370.47 1476.58 370.977 1489.78C373.167 1546.71 382.272 1603.6 396.977 1652.1C440.655 1796.12 532.297 1896.32 669.977 1950.56C731.223 1974.69 793.291 1987.81 876.977 1994.35C885.614 1995.02 992.247 1995.71 1172.98 1996.25C1502.65 1997.24 1682.55 1997.26 1658.6 1995.63C1658.06 1995.6 1655.2 1995.65 1654.45 1995.61C1554.72 1990.37 1476.78 1977.2 1402.41 1946.28C1310.62 1908.12 1236.99 1844.67 1188.07 1761.56C1179.1 1746.32 1164.98 1717.36 1157.23 1698.28C1152.09 1685.65 1148.63 1675.38 1136.6 1636.78C1135.23 1632.38 1134.61 1631.19 1134.57 1632.09C1134.51 1633.53 1015.86 1632.7 996.79 1631.22C979.029 1629.84 957.831 1626.78 944.977 1623.72C922.78 1618.44 896.799 1607.97 879.477 1597.31C830.645 1567.28 801.512 1515.02 791.415 1439.28C788.744 1419.25 788.123 1359.95 788.04 1117.03L787.977 893.283L951.977 892.988L951.977 722.417L951.977 551.283L869.477 551.283L786.977 551.283L786.977 364.283L786.977 177.283Z" fill="#77a6b4" fill-rule="nonzero" opacity="1" stroke="none" vectornator:layerName="Curve 1"/>
</g>
</svg>
