<?xml version="1.0" encoding="utf-8"?>
<svg viewBox="0 0 5000 5000" xmlns="http://www.w3.org/2000/svg">
  <path d="M0 0 C499.83136176 -0.0201782 499.83136176 -0.0201782 637.02020831 -0.02508167 C639.64234315 -0.02517548 642.26447799 -0.02526931 644.88661283 -0.02536313 C646.20145137 -0.02541016 647.5162899 -0.0254572 648.87097203 -0.02550566 C652.96784886 -0.0256523 657.06472569 -0.02579923 661.16160252 -0.02594624 C808.27307346 -0.0312242 955.3845444 -0.0359206 1220.34434468 -0.042239 C1224.91432204 -0.04234323 1229.4842994 -0.04244766 1234.05427676 -0.04255217 C1363.5467653 -0.04551302 1493.03925386 -0.04827987 1622.53174241 -0.05078693 C1627.32441934 -0.05087972 1632.11709628 -0.05097252 1636.90977321 -0.05106533 C1638.49271026 -0.05109598 1640.07564731 -0.05112663 1641.70655215 -0.05115821 C1701.22729836 -0.05231125 1760.74804457 -0.05350862 1820.26879079 -0.05473244 C1826.73583651 -0.05486537 1833.20288223 -0.05499779 1839.66992796 -0.05512976 C1992.33415125 -0.05824535 2144.99837446 -0.06215814 2297.66259766 -0.06866455 C2299.26964076 -0.06873299 2300.87668387 -0.06880142 2302.53242525 -0.06887193 C2355.97428011 -0.07114897 2409.41613496 -0.07350337 2462.85798981 -0.07586844 C2511.14468925 -0.07800513 2559.4313887 -0.08011405 2607.71808815 -0.08213139 C2609.30431793 -0.08219767 2610.89054771 -0.08226395 2612.52484506 -0.08233224 C2711.85464916 -0.08647553 2811.18445325 -0.08941574 2910.51425743 -0.09113979 C2912.04822035 -0.09116658 2913.58218326 -0.09119336 2915.1626299 -0.09122096 C2982.52855922 -0.09239624 3049.89448853 -0.09332058 3117.26041785 -0.0939579 C3144.36162463 -0.09421545 3171.46283141 -0.09451018 3198.56403819 -0.09482527 C3203.05764516 -0.09487721 3207.55125214 -0.09492794 3212.04485912 -0.09497854 C3280.79698727 -0.09576133 3349.54911527 -0.0973744 3418.30124331 -0.10139394 C3419.78441346 -0.10148064 3421.26758361 -0.10156734 3422.79569831 -0.10165666 C3446.65525837 -0.10305647 3470.51481843 -0.1045254 3494.37437848 -0.10600626 C3562.0979911 -0.11020953 3629.82160356 -0.11394828 3697.54521632 -0.11413276 C3698.91901061 -0.11413674 3700.2928049 -0.11414071 3701.70822932 -0.11414481 C3731.67810101 -0.1142216 3761.6479727 -0.11402538 3791.61784438 -0.1135619 C3803.57024434 -0.11338146 3815.52264429 -0.11323844 3827.47504425 -0.11310768 C3828.77886205 -0.11309245 3830.08267984 -0.11307721 3831.42600727 -0.11306151 C3872.7979119 -0.11259604 3914.16981557 -0.11521287 3955.54171994 -0.11960873 C3996.27247745 -0.12392405 4037.00323375 -0.12521603 4077.7339914 -0.12209016 C4083.31120537 -0.12166265 4088.88841934 -0.12127022 4094.46563332 -0.12089889 C4096.10342547 -0.12078785 4096.10342547 -0.12078785 4097.77430433 -0.12067457 C4114.99640636 -0.11959827 4132.21850623 -0.1218637 4149.44060783 -0.12555815 C4166.28715294 -0.12910405 4183.13369492 -0.12910607 4199.98024 -0.12530107 C4209.80779847 -0.12318756 4219.63534754 -0.12377869 4229.46290518 -0.12846097 C4235.98041264 -0.13129259 4242.49791317 -0.13047211 4249.01542016 -0.12673209 C4252.6984967 -0.12471873 4256.38155481 -0.1241898 4260.06463013 -0.12820339 C4272.92750164 -0.14116057 4285.78360081 -0.11793695 4298.63839527 0.38276241 C4299.53873624 0.41313895 4300.43907721 0.44351549 4301.36670123 0.47481253 C4302.18919195 0.51292467 4303.01168266 0.5510368 4303.85909734 0.59030385 C4304.56752326 0.62093426 4305.27594918 0.65156467 4306.00584255 0.68312327 C4308 1 4308 1 4312 3 C4312 69 4312 135 4312 203 C4378.33 203 4444.66 203 4513 203 C4513 558.74 4513 914.48 4513 1281 C3926.59 1281 3340.18 1281 2736 1281 C2736 1290.9 2736 1300.8 2736 1311 C2801.34 1311 2866.68 1311 2934 1311 C2934 2324.1 2934 3337.2 2934 4381 C2552.85 4381 2171.7 4381 1779 4381 C1779 4316.65 1779 4252.3 1779 4186 C1708.05 4186 1637.1 4186 1564 4186 C1564 3227.35 1564 2268.7 1564 1281 C1115.53 1281 667.06 1281 205 1281 C205 1215 205 1149 205 1081 C139.59887287 1081.03961778 139.59887287 1081.03961778 74.19775391 1081.09008789 C61.57495117 1081.09460449 61.57495117 1081.09460449 55.67367554 1081.09544373 C51.53459136 1081.09637883 47.39551988 1081.10014 43.25643921 1081.10557556 C37.98557836 1081.11240631 32.71473613 1081.11449643 27.44387126 1081.11307228 C25.50397346 1081.11337032 23.56407504 1081.11536991 21.62418103 1081.11921513 C19.01453624 1081.12414982 16.4049649 1081.12300439 13.7953186 1081.12025452 C13.02706442 1081.12316718 12.25881023 1081.12607985 11.46727562 1081.12908077 C6.22824965 1081.11412483 6.22824965 1081.11412483 4 1080 C4 1079.34 4 1078.68 4 1078 C2.68 1077.67 1.36 1077.34 0 1077 C0 721.59 0 366.18 0 0 Z M329 330 C329 467.61 329 605.22 329 747 C1532.84 747 2736.68 747 3977 747 C3977 609.39 3977 471.78 3977 330 C2773.16 330 1569.32 330 329 330 Z M1900 1438 C1900 2234.29 1900 3030.58 1900 3851 C2064.34 3851 2228.68 3851 2398 3851 C2398 3054.71 2398 2258.42 2398 1438 C2233.66 1438 2069.32 1438 1900 1438 Z " fill="#2E2E2E" transform="matrix(1, 0, 0, 1, 244, 465)"/>
  <path d="M0 0 C1369.5 0 2739 0 4150 0 C4150 303.6 4150 607.2 4150 920 C2780.5 920 1411 920 0 920 C0 616.4 0 312.8 0 0 Z M246 248 C246 385.61 246 523.22 246 665 C1449.84 665 2653.68 665 3894 665 C3894 527.39 3894 389.78 3894 248 C2690.16 248 1486.32 248 246 248 Z " fill="#76A5B3" transform="matrix(1, 0, 0, 1, 327, 547)"/>
  <path d="M0 0 C334.95 0 669.9 0 1015 0 C1015 966.9 1015 1933.8 1015 2930 C680.05 2930 345.1 2930 0 2930 C0 1963.1 0 996.2 0 0 Z M257 260 C257 1056.29 257 1852.58 257 2673 C421.34 2673 585.68 2673 755 2673 C755 1876.71 755 1080.42 755 260 C590.66 260 426.32 260 257 260 Z " fill="#76A5B3" transform="matrix(1, 0, 0, 1, 1887, 1643.0000000000002)"/>
  <path d="M0 0 C42.24 0 84.48 0 128 0 C128 967.56 128 1935.12 128 2932 C-207.61 2932 -543.22 2932 -889 2932 C-889 2890.75 -889 2849.5 -889 2807 C-595.63 2807 -302.26 2807 0 2807 C0 1880.69 0 954.38 0 0 Z " fill="#DE6C6C" transform="matrix(1, 0, 0, 1, 2981, 1845.0000000000002)"/>
  <path d="M0 0 C40.26 0 80.52 0 122 0 C122 303.6 122 607.2 122 920 C-438.01 920 -998.02 920 -1575 920 C-1575 886.01 -1575 852.02 -1575 817 C-1962.09 817 -2349.18 817 -2748 817 C-2748 850.99 -2748 884.98 -2748 920 C-3170.4 920 -3592.8 920 -4028 920 C-4028 880.07 -4028 840.14 -4028 799 C-2698.76 799 -1369.52 799 0 799 C0 535.33 0 271.66 0 0 Z " fill="#DE6C6C" transform="matrix(1, 0, 0, 1, 4556, 747)"/>
  <path d="M0 0 C1236.84 0 2473.68 0 3748 0 C3748 170.94 3748 341.88 3748 518 C2511.16 518 1274.32 518 0 518 C0 347.06 0 176.12 0 0 Z M50 51 C50 188.61 50 326.22 50 468 C1253.84 468 2457.68 468 3698 468 C3698 330.39 3698 192.78 3698 51 C2494.16 51 1290.32 51 50 51 Z " fill="#2E2E2E" transform="matrix(1, 0, 0, 1, 523, 744)"/>
  <path d="M0 0 C197.34 0 394.68 0 598 0 C598 829.29 598 1658.58 598 2513 C400.66 2513 203.32 2513 0 2513 C0 1683.71 0 854.42 0 0 Z M50 50 C50 846.29 50 1642.58 50 2463 C214.34 2463 378.68 2463 548 2463 C548 1666.71 548 870.42 548 50 C383.66 50 219.32 50 50 50 Z " fill="#2E2E2E" transform="matrix(1, 0, 0, 1, 2094, 1853.0000000000002)"/>
</svg>